<svg xmlns="http://www.w3.org/2000/svg" width="379.7234191894531" height="371.129150390625" viewBox="-92.29598999023438 -82.74173736572266 379.7234191894531 371.129150390625"><title>Neo4j Graph Visualization</title><desc>Created using Neo4j (http://www.neo4j.com/)</desc><g class="layer relationships"><g class="relationship" transform="translate(151.78694639657257 259.3874061825603) rotate(306.0414569076022)"><path class="outline" fill="#A5ABB6" stroke="none" d="M 24.018736134675446,6.953439040707552 L 24.277555179777966,5.987513214418485 A 100.14928567708841 100.14928567708841 0 0 0 30.887254700637406,7.520619074028502 L 30.694434124482246,8.501853105955234 A 101.14928567708841 101.14928567708841 0 0 1 24.018736134675446,6.953439040707552 Z M 66.45188464944556,9.085557290076096 L 66.29119357907149,8.098552538364117 A 100.14928567708841 100.14928567708841 0 0 0 72.94741089942367,6.781999342681005 L 72.26594882770148,3.8604228085467205 L 79.87799982435736,5.678850597684937 L 73.85602699505326,10.677434721526717 L 73.17456492333106,7.755858187392433 A 101.14928567708841 101.14928567708841 0 0 1 66.45188464944556,9.085557290076096"/><text text-anchor="middle" pointer-events="none" font-size="8px" fill="#000000" x="48.55531882377694" y="12.88660991387917" font-family="sans-serif">WROTE</text></g><g class="relationship" transform="translate(151.78694639657257 259.3874061825603) rotate(306.0414569076022)"><path class="outline" fill="#A5ABB6" stroke="none" d="M 24.018736134675446,-6.953439040707552 L 24.277555179777966,-5.987513214418485 A 100.14928567708841 100.14928567708841 0 0 1 25.492269413484237,-6.304847897630253 L 25.245579403806122,-7.273942340460792 A 101.14928567708841 101.14928567708841 0 0 0 24.018736134675446,-6.953439040707552 Z M 71.93791432388309,-8.036147443427936 L 71.72298629436776,-7.059517553383273 A 100.14928567708841 100.14928567708841 0 0 1 72.94741089942367,-6.781999342681005 L 72.26594882770148,-3.8604228085467205 L 79.87799982435736,-5.678850597684937 L 73.85602699505326,-10.677434721526717 L 73.17456492333106,-7.755858187392433 A 101.14928567708841 101.14928567708841 0 0 0 71.93791432388309,-8.036147443427936"/><text text-anchor="middle" pointer-events="none" font-size="8px" fill="#000000" x="48.555318823776936" y="-6.88660991387917" font-family="sans-serif">DIRECTED</text></g><g class="relationship" transform="translate(258.4274633833086 81.18889693691185) rotate(475.7572262333265)"><path class="outline" fill="#A5ABB6" stroke="none" d="M 24.018736134675446,6.953439040707552 L 24.277555179777966,5.987513214418485 A 100.27026337500014 100.27026337500014 0 0 0 30.917104164358896,7.526765178729477 L 30.724501650071197,8.508042036446014 A 101.27026337500014 101.27026337500014 0 0 1 24.018736134675446,6.953439040707552 Z M 66.4821977527846,9.09143271322688 L 66.32170850142433,8.10439512518991 A 100.27026337500014 100.27026337500014 0 0 0 73.00793651834795,6.782554652973021 L 72.32642257534118,3.8609902183785376 L 79.93850585623619,5.679282858389664 L 73.91662177569029,10.677973899098998 L 73.23510783268352,7.7564094645045145 A 101.27026337500014 101.27026337500014 0 0 1 66.4821977527846,9.09143271322688"/><text text-anchor="middle" pointer-events="none" font-size="8px" fill="#000000" x="48.58555002886715" y="12.890730610564972" transform="rotate(180 48.58555002886715 9.890730610564972)" font-family="sans-serif">WROTE</text></g><g class="relationship" transform="translate(258.4274633833086 81.18889693691185) rotate(475.7572262333265)"><path class="outline" fill="#A5ABB6" stroke="none" d="M 24.018736134675446,-6.953439040707552 L 24.277555179777966,-5.987513214418485 A 100.27026337500014 100.27026337500014 0 0 1 25.521774588144222,-6.312364155932343 L 25.27536420106739,-7.2815297357692685 A 101.27026337500014 101.27026337500014 0 0 0 24.018736134675446,-6.953439040707552 Z M 71.96844575230337,-8.043332408092226 L 71.7537821775368,-7.0666443567327235 A 100.27026337500014 100.27026337500014 0 0 1 73.00793651834795,-6.782554652973021 L 72.32642257534118,-3.8609902183785376 L 79.93850585623619,-5.679282858389664 L 73.91662177569029,-10.677973899098998 L 73.23510783268352,-7.7564094645045145 A 101.27026337500014 101.27026337500014 0 0 0 71.96844575230337,-8.043332408092226"/><text text-anchor="middle" pointer-events="none" font-size="8px" fill="#000000" x="48.58555002886715" y="-6.890730610564972" transform="rotate(180 48.58555002886715 -9.890730610564972)" font-family="sans-serif">DIRECTED</text></g><g class="relationship" transform="translate(143.47149297059497 -53.74173822055455) rotate(534.8546790694437)"><path class="outline" fill="#A5ABB6" stroke="none" d="M 21.40063509461097,12.933012701892217 L 21.90063509461097,12.06698729810778 A 56.711498052711235 56.711498052711235 0 0 0 23.855404431254875,13.14484557080435 L 23.389873091116886,14.029876966490022 A 57.711498052711235 57.711498052711235 0 0 1 21.40063509461097,12.933012701892217 Z M 73.83362269290234,15.629103140223307 L 73.42508645025617,14.716361041684756 A 56.711498052711235 56.711498052711235 0 0 0 75.44420469394825,13.764487555609248 L 74.11178597263866,11.076614725450852 L 81.93797775120278,11.103489344246599 L 77.2207629890277,17.348317995820445 L 75.88834426771811,14.660445165662049 A 57.711498052711235 57.711498052711235 0 0 1 73.83362269290234,15.629103140223307"/><text text-anchor="middle" pointer-events="none" font-size="8px" fill="#000000" x="48.44350976979924" y="23.13615764649839" transform="rotate(180 48.44350976979924 20.13615764649839)" font-family="sans-serif">PRODUCED</text></g><g class="relationship" transform="translate(143.47149297059497 -53.74173822055455) rotate(534.8546790694437)"><path class="outline" fill="#A5ABB6" stroke="none" d="M 25 0.5 L 25.22314650126137 0.5 L 25.22314650126137 -0.5 L 25 -0.5 Z M 72.11377150126137 0.5 L 72.33691800252274 0.5 L 72.33691800252274 3.5 L 79.33691800252274 0 L 72.33691800252274 -3.5 L 72.33691800252274 -0.5 L 72.11377150126137 -0.5 Z"/><text text-anchor="middle" pointer-events="none" font-size="8px" fill="#000000" x="48.66845900126137" y="3" transform="rotate(180 48.66845900126137 0)" font-family="sans-serif">DIRECTED</text></g><g class="relationship" transform="translate(143.47149297059497 -53.74173822055455) rotate(534.8546790694437)"><path class="outline" fill="#A5ABB6" stroke="none" d="M 21.40063509461097,-12.933012701892217 L 21.90063509461097,-12.06698729810778 A 56.711498052711235 56.711498052711235 0 0 1 31.112261992994053,-16.335938874704574 L 30.774691609820984,-17.277239164943765 A 57.711498052711235 57.711498052711235 0 0 0 21.40063509461097,-12.933012701892217 Z M 66.2579375553961,-18.402170124540206 L 65.98066952433902,-17.44137751478837 A 56.711498052711235 56.711498052711235 0 0 1 75.44420469394825,-13.764487555609248 L 74.11178597263866,-11.076614725450852 L 81.93797775120278,-11.103489344246599 L 77.2207629890277,-17.348317995820445 L 75.88834426771811,-14.660445165662049 A 57.711498052711235 57.711498052711235 0 0 0 66.2579375553961,-18.402170124540206"/><text text-anchor="middle" pointer-events="none" font-size="8px" fill="#000000" x="48.44350976979924" y="-17.13615764649839" transform="rotate(180 48.44350976979924 -20.13615764649839)" font-family="sans-serif">WROTE</text></g><g class="relationship" transform="translate(-63.29598568786363 98.63495369814743) rotate(432.60929701605426)"><path class="outline" fill="#A5ABB6" stroke="none" d="M 21.40063509461097,12.933012701892217 L 21.90063509461097,12.06698729810778 A 57.60763650532305 57.60763650532305 0 0 0 24.255367105672143,13.35431348256617 L 23.796242450572702,14.242685336622685 A 58.60763650532305 58.60763650532305 0 0 1 21.40063509461097,12.933012701892217 Z M 74.28708491254432,15.83096423781074 L 73.88470336345847,14.915492179823566 A 57.60763650532305 57.60763650532305 0 0 0 76.31569002120912,13.778709254658594 L 74.98194826954551,11.091492676139234 L 82.80815232969823,11.114514597196736 L 78.0940123567606,17.361664692684407 L 76.76027060509699,14.674448114165045 A 58.60763650532305 58.60763650532305 0 0 1 74.28708491254432,15.83096423781074"/><text text-anchor="middle" pointer-events="none" font-size="8px" fill="#000000" x="48.87747839361395" y="23.256218875988637" font-family="sans-serif">PRODUCED</text></g><g class="relationship" transform="translate(-63.29598568786363 98.63495369814743) rotate(432.60929701605426)"><path class="outline" fill="#A5ABB6" stroke="none" d="M 25 0.5 L 31.214093158679788 0.5 L 31.214093158679788 -0.5 L 25 -0.5 Z M 66.98753065867979 0.5 L 73.20162381735958 0.5 L 73.20162381735958 3.5 L 80.20162381735958 0 L 73.20162381735958 -3.5 L 73.20162381735958 -0.5 L 66.98753065867979 -0.5 Z"/><text text-anchor="middle" pointer-events="none" font-size="8px" fill="#000000" x="49.10081190867979" y="3" font-family="sans-serif">WROTE</text></g><g class="relationship" transform="translate(-63.29598568786363 98.63495369814743) rotate(432.60929701605426)"><path class="outline" fill="#A5ABB6" stroke="none" d="M 21.40063509461097,-12.933012701892217 L 21.90063509461097,-12.06698729810778 A 57.60763650532305 57.60763650532305 0 0 1 26.431802193653105,-14.421718847217413 L 26.010457861094405,-15.32861958788348 A 58.60763650532305 58.60763650532305 0 0 0 21.40063509461097,-12.933012701892217 Z M 72.00899479477864,-16.775585059935487 L 71.64548343827528,-15.843995293089002 A 57.60763650532305 57.60763650532305 0 0 1 76.31569002120912,-13.778709254658594 L 74.98194826954551,-11.091492676139234 L 82.80815232969823,-11.114514597196736 L 78.0940123567606,-17.361664692684407 L 76.76027060509699,-14.674448114165045 A 58.60763650532305 58.60763650532305 0 0 0 72.00899479477864,-16.775585059935487"/><text text-anchor="middle" pointer-events="none" font-size="8px" fill="#000000" x="48.87747839361394" y="-17.256218875988637" font-family="sans-serif">DIRECTED</text></g></g><g class="layer nodes"><g class="node" transform="translate(151.78694639657257,259.3874061825603)"><circle class="outline" cx="0" cy="0" r="25" fill="#57C7E3" stroke="#23b3d7" stroke-width="2px"/><text text-anchor="middle" pointer-events="none" font-family="sans-serif" dy="1.5625" font-size="25" fill="#2A2C34"/><text text-anchor="middle" pointer-events="none" font-family="sans-serif" dy="1.5625" font-size="25" fill="#2A2C34"/><text text-anchor="middle" pointer-events="none" x="0" y="0" font-size="10px" fill="#2A2C34" font-family="sans-serif"> Andy</text><text text-anchor="middle" pointer-events="none" x="0" y="10" font-size="10px" fill="#2A2C34" font-family="sans-serif"> Wacho…</text></g><g class="node" transform="translate(213.1095473855169,175.1123864488317)"><circle class="outline" cx="0" cy="0" r="25" fill="#F79767" stroke="#f36924" stroke-width="2px"/><text text-anchor="middle" pointer-events="none" font-family="sans-serif" dy="1.5625" font-size="25" fill="#FFFFFF"/><text text-anchor="middle" pointer-events="none" font-family="sans-serif" dy="1.5625" font-size="25" fill="#FFFFFF"/><text text-anchor="middle" pointer-events="none" x="0" y="0" font-size="10px" fill="#FFFFFF" font-family="sans-serif"> Speed</text><text text-anchor="middle" pointer-events="none" x="0" y="10" font-size="10px" fill="#FFFFFF" font-family="sans-serif"> Racer</text></g><g class="node" transform="translate(258.4274633833086,81.18889693691185)"><circle class="outline" cx="0" cy="0" r="25" fill="#57C7E3" stroke="#23b3d7" stroke-width="2px"/><text text-anchor="middle" pointer-events="none" font-family="sans-serif" dy="1.5625" font-size="25" fill="#2A2C34"/><text text-anchor="middle" pointer-events="none" font-family="sans-serif" dy="1.5625" font-size="25" fill="#2A2C34"/><text text-anchor="middle" pointer-events="none" x="0" y="0" font-size="10px" fill="#2A2C34" font-family="sans-serif"> Lana</text><text text-anchor="middle" pointer-events="none" x="0" y="10" font-size="10px" fill="#2A2C34" font-family="sans-serif"> Wacho…</text></g><g class="node" transform="translate(143.47149297059497,-53.74173822055455)"><circle class="outline" cx="0" cy="0" r="25" fill="#57C7E3" stroke="#23b3d7" stroke-width="2px"/><text text-anchor="middle" pointer-events="none" font-family="sans-serif" dy="1.5625" font-size="25" fill="#2A2C34"/><text text-anchor="middle" pointer-events="none" font-family="sans-serif" dy="1.5625" font-size="25" fill="#2A2C34"/><text text-anchor="middle" pointer-events="none" x="0" y="0" font-size="10px" fill="#2A2C34" font-family="sans-serif"> Cameron</text><text text-anchor="middle" pointer-events="none" x="0" y="10" font-size="10px" fill="#2A2C34" font-family="sans-serif"> Crowe</text></g><g class="node" transform="translate(39.55500699839887,-44.38458045467679)"><circle class="outline" cx="0" cy="0" r="25" fill="#F79767" stroke="#f36924" stroke-width="2px"/><text text-anchor="middle" pointer-events="none" font-family="sans-serif" dy="1.5625" font-size="25" fill="#FFFFFF"/><text text-anchor="middle" pointer-events="none" font-family="sans-serif" dy="1.5625" font-size="25" fill="#FFFFFF"/><text text-anchor="middle" pointer-events="none" x="0" y="0" font-size="10px" fill="#FFFFFF" font-family="sans-serif"> Jerry</text><text text-anchor="middle" pointer-events="none" x="0" y="10" font-size="10px" fill="#FFFFFF" font-family="sans-serif"> Maguire</text></g><g class="node" transform="translate(-63.29598568786363,98.63495369814743)"><circle class="outline" cx="0" cy="0" r="25" fill="#57C7E3" stroke="#23b3d7" stroke-width="2px"/><text text-anchor="middle" pointer-events="none" font-family="sans-serif" dy="1.5625" font-size="25" fill="#2A2C34"/><text text-anchor="middle" pointer-events="none" font-family="sans-serif" dy="1.5625" font-size="25" fill="#2A2C34"/><text text-anchor="middle" pointer-events="none" x="0" y="0" font-size="10px" fill="#2A2C34" font-family="sans-serif"> Nancy</text><text text-anchor="middle" pointer-events="none" x="0" y="10" font-size="10px" fill="#2A2C34" font-family="sans-serif"> Meyers</text></g><g class="node" transform="translate(-31.852698421607165,199.02768919081598)"><circle class="outline" cx="0" cy="0" r="25" fill="#F79767" stroke="#f36924" stroke-width="2px"/><text text-anchor="middle" pointer-events="none" font-family="sans-serif" dy="1.5625" font-size="25" fill="#FFFFFF"/><text text-anchor="middle" pointer-events="none" x="0" y="5" font-size="10px" fill="#FFFFFF" font-family="sans-serif"> Somethi…</text></g></g></svg>