<svg xmlns="http://www.w3.org/2000/svg" width="284.8601989746094" height="270.7458801269531" viewBox="-36.7151985168457 -40.70554733276367 284.8601989746094 270.7458801269531"><title>Neo4j Graph Visualization</title><desc>Created using Neo4j (http://www.neo4j.com/)</desc><g class="layer relationships"><g class="relationship" transform="translate(138.82743516623682 201.04032907132492) rotate(253.8431584768038)"><path class="outline" fill="#A5ABB6" stroke="none" d="M 25 0.5 L 31.06617638550641 0.5 L 31.06617638550641 -0.5 L 25 -0.5 Z M 76.62867638550641 0.5 L 82.69485277101282 0.5 L 82.69485277101282 3.5 L 89.69485277101282 0 L 82.69485277101282 -3.5 L 82.69485277101282 -0.5 L 76.62867638550641 -0.5 Z"/><text text-anchor="middle" pointer-events="none" font-size="8px" fill="#000000" x="53.84742638550641" y="3" transform="rotate(180 53.84742638550641 0)" font-family="sans-serif">ACTED_IN</text></g><g class="relationship" transform="translate(219.14499950745002 112.38212941296261) rotate(190.84774447560676)"><path class="outline" fill="#A5ABB6" stroke="none" d="M 25 0.5 L 35.75100605184817 0.5 L 35.75100605184817 -0.5 L 25 -0.5 Z M 71.52444355184818 0.5 L 82.27544960369634 0.5 L 82.27544960369634 3.5 L 89.27544960369634 0 L 82.27544960369634 -3.5 L 82.27544960369634 -0.5 L 71.52444355184818 -0.5 Z"/><text text-anchor="middle" pointer-events="none" font-size="8px" fill="#000000" x="53.63772480184817" y="3" transform="rotate(180 53.63772480184817 0)" font-family="sans-serif">WROTE</text></g><g class="relationship" transform="translate(176.92951350230555 -0.7224432583673155) rotate(487.3944817999553)"><path class="outline" fill="#A5ABB6" stroke="none" d="M 25 0.5 L 31.365733728062537 0.5 L 31.365733728062537 -0.5 L 25 -0.5 Z M 76.92823372806254 0.5 L 83.29396745612507 0.5 L 83.29396745612507 3.5 L 90.29396745612507 0 L 83.29396745612507 -3.5 L 83.29396745612507 -0.5 L 76.92823372806254 -0.5 Z"/><text text-anchor="middle" pointer-events="none" font-size="8px" fill="#000000" x="54.14698372806254" y="3" transform="rotate(180 54.14698372806254 0)" font-family="sans-serif">ACTED_IN</text></g><g class="relationship" transform="translate(56.680245801008034 -11.705548620327097) rotate(423.91019209306734)"><path class="outline" fill="#A5ABB6" stroke="none" d="M 25 0.5 L 30.164362299271758 0.5 L 30.164362299271758 -0.5 L 25 -0.5 Z M 77.05498729927176 0.5 L 82.21934959854352 0.5 L 82.21934959854352 3.5 L 89.21934959854352 0 L 82.21934959854352 -3.5 L 82.21934959854352 -0.5 L 77.05498729927176 -0.5 Z"/><text text-anchor="middle" pointer-events="none" font-size="8px" fill="#000000" x="53.60967479927176" y="3" font-family="sans-serif">DIRECTED</text></g><g class="relationship" transform="translate(-7.715197829623459 89.1458466002544) rotate(360.86450251402465)"><path class="outline" fill="#A5ABB6" stroke="none" d="M 25 0.5 L 31.03865589765379 0.5 L 31.03865589765379 -0.5 L 25 -0.5 Z M 76.6011558976538 0.5 L 82.63981179530758 0.5 L 82.63981179530758 3.5 L 89.63981179530758 0 L 82.63981179530758 -3.5 L 82.63981179530758 -0.5 L 76.6011558976538 -0.5 Z"/><text text-anchor="middle" pointer-events="none" font-size="8px" fill="#000000" x="53.81990589765379" y="3" font-family="sans-serif">ACTED_IN</text></g><g class="relationship" transform="translate(36.1247257775022 183.63265904835472) rotate(307.348760184582)"><path class="outline" fill="#A5ABB6" stroke="none" d="M 25 0.5 L 32.05969728130722 0.5 L 32.05969728130722 -0.5 L 25 -0.5 Z M 77.62219728130722 0.5 L 84.68189456261445 0.5 L 84.68189456261445 3.5 L 91.68189456261445 0 L 84.68189456261445 -3.5 L 84.68189456261445 -0.5 L 77.62219728130722 -0.5 Z"/><text text-anchor="middle" pointer-events="none" font-size="8px" fill="#000000" x="54.84094728130722" y="3" font-family="sans-serif">ACTED_IN</text></g></g><g class="layer nodes"><g class="node" transform="translate(138.82743516623682,201.04032907132492)"><circle class="outline" cx="0" cy="0" r="25" fill="#57C7E3" stroke="#23b3d7" stroke-width="2px"/><text text-anchor="middle" pointer-events="none" font-family="sans-serif" dy="1.5625" font-size="25" fill="#2A2C34"/><text text-anchor="middle" pointer-events="none" font-family="sans-serif" dy="1.5625" font-size="25" fill="#2A2C34"/><text text-anchor="middle" pointer-events="none" x="0" y="0" font-size="10px" fill="#2A2C34" font-family="sans-serif"> Hugo</text><text text-anchor="middle" pointer-events="none" x="0" y="10" font-size="10px" fill="#2A2C34" font-family="sans-serif"> Weaving</text></g><g class="node" transform="translate(106.91156474770709,90.87551405495081)"><circle class="outline" cx="0" cy="0" r="25" fill="#F79767" stroke="#f36924" stroke-width="2px"/><text text-anchor="middle" pointer-events="none" font-family="sans-serif" dy="1.5625" font-size="25" fill="#FFFFFF"/><text text-anchor="middle" pointer-events="none" font-family="sans-serif" dy="1.5625" font-size="25" fill="#FFFFFF"/><text text-anchor="middle" pointer-events="none" font-family="sans-serif" dy="1.5625" font-size="25" fill="#FFFFFF"/><text text-anchor="middle" pointer-events="none" x="0" y="-5" font-size="10px" fill="#FFFFFF" font-family="sans-serif"> Captain</text><text text-anchor="middle" pointer-events="none" x="0" y="5" font-size="10px" fill="#FFFFFF" font-family="sans-serif"> America:</text><text text-anchor="middle" pointer-events="none" x="0" y="15" font-size="10px" fill="#FFFFFF" font-family="sans-serif"> The Fi…</text></g><g class="node" transform="translate(219.14499950745002,112.38212941296261)"><circle class="outline" cx="0" cy="0" r="25" fill="#57C7E3" stroke="#23b3d7" stroke-width="2px"/><text text-anchor="middle" pointer-events="none" font-family="sans-serif" dy="1.5625" font-size="25" fill="#2A2C34"/><text text-anchor="middle" pointer-events="none" x="0" y="5" font-size="10px" fill="#2A2C34" font-family="sans-serif"> Christop…</text></g><g class="node" transform="translate(176.92951350230555,-0.7224432583673155)"><circle class="outline" cx="0" cy="0" r="25" fill="#57C7E3" stroke="#23b3d7" stroke-width="2px"/><text text-anchor="middle" pointer-events="none" font-family="sans-serif" dy="1.5625" font-size="25" fill="#2A2C34"/><text text-anchor="middle" pointer-events="none" font-family="sans-serif" dy="1.5625" font-size="25" fill="#2A2C34"/><text text-anchor="middle" pointer-events="none" x="0" y="0" font-size="10px" fill="#2A2C34" font-family="sans-serif"> Chris</text><text text-anchor="middle" pointer-events="none" x="0" y="10" font-size="10px" fill="#2A2C34" font-family="sans-serif"> Evans</text></g><g class="node" transform="translate(56.680245801008034,-11.705548620327097)"><circle class="outline" cx="0" cy="0" r="25" fill="#57C7E3" stroke="#23b3d7" stroke-width="2px"/><text text-anchor="middle" pointer-events="none" font-family="sans-serif" dy="1.5625" font-size="25" fill="#2A2C34"/><text text-anchor="middle" pointer-events="none" font-family="sans-serif" dy="1.5625" font-size="25" fill="#2A2C34"/><text text-anchor="middle" pointer-events="none" x="0" y="0" font-size="10px" fill="#2A2C34" font-family="sans-serif"> Joe</text><text text-anchor="middle" pointer-events="none" x="0" y="10" font-size="10px" fill="#2A2C34" font-family="sans-serif"> Johnston</text></g><g class="node" transform="translate(-7.715197829623459,89.1458466002544)"><circle class="outline" cx="0" cy="0" r="25" fill="#57C7E3" stroke="#23b3d7" stroke-width="2px"/><text text-anchor="middle" pointer-events="none" font-family="sans-serif" dy="1.5625" font-size="25" fill="#2A2C34"/><text text-anchor="middle" pointer-events="none" font-family="sans-serif" dy="1.5625" font-size="25" fill="#2A2C34"/><text text-anchor="middle" pointer-events="none" font-family="sans-serif" dy="1.5625" font-size="25" fill="#2A2C34"/><text text-anchor="middle" pointer-events="none" x="0" y="-5" font-size="10px" fill="#2A2C34" font-family="sans-serif"> Samuel</text><text text-anchor="middle" pointer-events="none" x="0" y="5" font-size="10px" fill="#2A2C34" font-family="sans-serif"> L.</text><text text-anchor="middle" pointer-events="none" x="0" y="15" font-size="10px" fill="#2A2C34" font-family="sans-serif"> Jackson</text></g><g class="node" transform="translate(36.1247257775022,183.63265904835472)"><circle class="outline" cx="0" cy="0" r="25" fill="#57C7E3" stroke="#23b3d7" stroke-width="2px"/><text text-anchor="middle" pointer-events="none" font-family="sans-serif" dy="1.5625" font-size="25" fill="#2A2C34"/><text text-anchor="middle" pointer-events="none" font-family="sans-serif" dy="1.5625" font-size="25" fill="#2A2C34"/><text text-anchor="middle" pointer-events="none" x="0" y="0" font-size="10px" fill="#2A2C34" font-family="sans-serif"> Hayley</text><text text-anchor="middle" pointer-events="none" x="0" y="10" font-size="10px" fill="#2A2C34" font-family="sans-serif"> Atwell</text></g></g></svg>