<svg xmlns="http://www.w3.org/2000/svg" width="383.90814208984375" height="451.98236083984375" viewBox="-127.32042694091797 -111.05599975585938 383.90814208984375 451.98236083984375"><title>Neo4j Graph Visualization</title><desc>Created using Neo4j (http://www.neo4j.com/)</desc><g class="layer relationships"><g class="relationship" transform="translate(89.15554564975878 30.342827236450542) rotate(491.2911093804235)"><path class="outline" fill="#A5ABB6" stroke="none" d="M 25 0.5 L 43.329428631378434 0.5 L 43.329428631378434 -0.5 L 25 -0.5 Z M 88.89192863137843 0.5 L 107.22135726275687 0.5 L 107.22135726275687 3.5 L 114.22135726275687 0 L 107.22135726275687 -3.5 L 107.22135726275687 -0.5 L 88.89192863137843 -0.5 Z"/><text text-anchor="middle" pointer-events="none" font-size="8px" fill="#000000" x="66.11067863137843" y="3" transform="rotate(180 66.11067863137843 0)" font-family="sans-serif">ACTED_IN</text></g><g class="relationship" transform="translate(-44.99787175790933 33.01749893398486) rotate(246.08351433966044)"><path class="outline" fill="#A5ABB6" stroke="none" d="M 25 0.5 L 33.6260663220656 0.5 L 33.6260663220656 -0.5 L 25 -0.5 Z M 79.1885663220656 0.5 L 87.8146326441312 0.5 L 87.8146326441312 3.5 L 94.8146326441312 0 L 87.8146326441312 -3.5 L 87.8146326441312 -0.5 L 79.1885663220656 -0.5 Z"/><text text-anchor="middle" pointer-events="none" font-size="8px" fill="#000000" x="56.4073163220656" y="3" transform="rotate(180 56.4073163220656 0)" font-family="sans-serif">ACTED_IN</text></g><g class="relationship" transform="translate(-44.99787175790933 33.01749893398486) rotate(297.3928184235492)"><path class="outline" fill="#A5ABB6" stroke="none" d="M 25 0.5 L 38.52164966019977 0.5 L 38.52164966019977 -0.5 L 25 -0.5 Z M 84.08414966019977 0.5 L 97.60579932039954 0.5 L 97.60579932039954 3.5 L 104.60579932039954 0 L 97.60579932039954 -3.5 L 97.60579932039954 -0.5 L 84.08414966019977 -0.5 Z"/><text text-anchor="middle" pointer-events="none" font-size="8px" fill="#000000" x="61.30289966019977" y="3" font-family="sans-serif">ACTED_IN</text></g><g class="relationship" transform="translate(-44.99787175790933 33.01749893398486) rotate(451.1884861345742)"><path class="outline" fill="#A5ABB6" stroke="none" d="M 25 0.5 L 44.431595243877865 0.5 L 44.431595243877865 -0.5 L 25 -0.5 Z M 89.99409524387787 0.5 L 109.42569048775573 0.5 L 109.42569048775573 3.5 L 116.42569048775573 0 L 109.42569048775573 -3.5 L 109.42569048775573 -0.5 L 89.99409524387787 -0.5 Z"/><text text-anchor="middle" pointer-events="none" font-size="8px" fill="#000000" x="67.21284524387787" y="3" transform="rotate(180 67.21284524387787 0)" font-family="sans-serif">ACTED_IN</text></g><g class="relationship" transform="translate(-44.99787175790933 33.01749893398486) rotate(395.83241538873455)"><path class="outline" fill="#A5ABB6" stroke="none" d="M 25 0.5 L 28.023205905326094 0.5 L 28.023205905326094 -0.5 L 25 -0.5 Z M 73.5857059053261 0.5 L 76.60891181065219 0.5 L 76.60891181065219 3.5 L 83.60891181065219 0 L 76.60891181065219 -3.5 L 76.60891181065219 -0.5 L 73.5857059053261 -0.5 Z"/><text text-anchor="middle" pointer-events="none" font-size="8px" fill="#000000" x="50.804455905326094" y="3" font-family="sans-serif">ACTED_IN</text></g><g class="relationship" transform="translate(-44.99787175790933 33.01749893398486) rotate(427.4703222126724)"><path class="outline" fill="#A5ABB6" stroke="none" d="M 25 0.5 L 28.89557872710786 0.5 L 28.89557872710786 -0.5 L 25 -0.5 Z M 74.45807872710786 0.5 L 78.35365745421572 0.5 L 78.35365745421572 3.5 L 85.35365745421572 0 L 78.35365745421572 -3.5 L 78.35365745421572 -0.5 L 74.45807872710786 -0.5 Z"/><text text-anchor="middle" pointer-events="none" font-size="8px" fill="#000000" x="51.67682872710786" y="3" font-family="sans-serif">ACTED_IN</text></g><g class="relationship" transform="translate(15.124947337857567 236.2655067722294) rotate(224.44798985680302)"><path class="outline" fill="#A5ABB6" stroke="none" d="M 25 0.5 L 25.66403008704308 0.5 L 25.66403008704308 -0.5 L 25 -0.5 Z M 55.66403008704308 0.5 L 56.32806017408616 0.5 L 56.32806017408616 3.5 L 63.32806017408616 0 L 56.32806017408616 -3.5 L 56.32806017408616 -0.5 L 55.66403008704308 -0.5 Z"/><text text-anchor="middle" pointer-events="none" font-size="8px" fill="#000000" x="40.66403008704308" y="3" transform="rotate(180 40.66403008704308 0)" font-family="sans-serif">ACT…</text></g><g class="relationship" transform="translate(15.124947337857567 236.2655067722294) rotate(281.3086186557513)"><path class="outline" fill="#A5ABB6" stroke="none" d="M 25 0.5 L 44.934677344131885 0.5 L 44.934677344131885 -0.5 L 25 -0.5 Z M 90.49717734413188 0.5 L 110.43185468826377 0.5 L 110.43185468826377 3.5 L 117.43185468826377 0 L 110.43185468826377 -3.5 L 110.43185468826377 -0.5 L 90.49717734413188 -0.5 Z"/><text text-anchor="middle" pointer-events="none" font-size="8px" fill="#000000" x="67.71592734413188" y="3" font-family="sans-serif">ACTED_IN</text></g><g class="relationship" transform="translate(15.124947337857567 236.2655067722294) rotate(260.01388639529443)"><path class="outline" fill="#A5ABB6" stroke="none" d="M 25 0.5 L 25.156242995433672 0.5 L 25.156242995433672 -0.5 L 25 -0.5 Z M 70.71874299543367 0.5 L 70.87498599086734 0.5 L 70.87498599086734 3.5 L 77.87498599086734 0 L 70.87498599086734 -3.5 L 70.87498599086734 -0.5 L 70.71874299543367 -0.5 Z"/><text text-anchor="middle" pointer-events="none" font-size="8px" fill="#000000" x="47.93749299543367" y="3" transform="rotate(180 47.93749299543367 0)" font-family="sans-serif">ACTED_IN</text></g><g class="relationship" transform="translate(-98.32042791137144 94.27653815831789) rotate(417.8385672439815)"><path class="outline" fill="#A5ABB6" stroke="none" d="M 25 0.5 L 26.16300331795751 0.5 L 26.16300331795751 -0.5 L 25 -0.5 Z M 61.49894081795751 0.5 L 62.66194413591502 0.5 L 62.66194413591502 3.5 L 69.66194413591502 0 L 62.66194413591502 -3.5 L 62.66194413591502 -0.5 L 61.49894081795751 -0.5 Z"/><text text-anchor="middle" pointer-events="none" font-size="8px" fill="#000000" x="43.83097206795751" y="3" font-family="sans-serif">ACTE…</text></g><g class="relationship" transform="translate(-98.32042791137144 94.27653815831789) rotate(360.9411256122535)"><path class="outline" fill="#A5ABB6" stroke="none" d="M 25 0.5 L 44.41596576550201 0.5 L 44.41596576550201 -0.5 L 25 -0.5 Z M 89.97846576550201 0.5 L 109.39443153100402 0.5 L 109.39443153100402 3.5 L 116.39443153100402 0 L 109.39443153100402 -3.5 L 109.39443153100402 -0.5 L 89.97846576550201 -0.5 Z"/><text text-anchor="middle" pointer-events="none" font-size="8px" fill="#000000" x="67.19721576550201" y="3" font-family="sans-serif">ACTED_IN</text></g><g class="relationship" transform="translate(-98.32042791137144 94.27653815831789) rotate(383.0458240075791)"><path class="outline" fill="#A5ABB6" stroke="none" d="M 25 0.5 L 25.667620455890315 0.5 L 25.667620455890315 -0.5 L 25 -0.5 Z M 71.23012045589032 0.5 L 71.89774091178063 0.5 L 71.89774091178063 3.5 L 78.89774091178063 0 L 71.89774091178063 -3.5 L 71.89774091178063 -0.5 L 71.23012045589032 -0.5 Z"/><text text-anchor="middle" pointer-events="none" font-size="8px" fill="#000000" x="48.448870455890315" y="3" font-family="sans-serif">ACTED_IN</text></g><g class="relationship" transform="translate(97.08658024407724 190.0138740334509) rotate(395.23170476657924)"><path class="outline" fill="#A5ABB6" stroke="none" d="M 25 0.5 L 36.87109126458298 0.5 L 36.87109126458298 -0.5 L 25 -0.5 Z M 82.43359126458299 0.5 L 94.30468252916596 0.5 L 94.30468252916596 3.5 L 101.30468252916596 0 L 94.30468252916596 -3.5 L 94.30468252916596 -0.5 L 82.43359126458299 -0.5 Z"/><text text-anchor="middle" pointer-events="none" font-size="8px" fill="#000000" x="59.65234126458298" y="3" font-family="sans-serif">ACTED_IN</text></g><g class="relationship" transform="translate(97.08658024407724 190.0138740334509) rotate(322.84810363340415)"><path class="outline" fill="#A5ABB6" stroke="none" d="M 25 0.5 L 40.743909595872694 0.5 L 40.743909595872694 -0.5 L 25 -0.5 Z M 86.3064095958727 0.5 L 102.05031919174539 0.5 L 102.05031919174539 3.5 L 109.05031919174539 0 L 102.05031919174539 -3.5 L 102.05031919174539 -0.5 L 86.3064095958727 -0.5 Z"/><text text-anchor="middle" pointer-events="none" font-size="8px" fill="#000000" x="63.525159595872694" y="3" font-family="sans-serif">ACTED_IN</text></g><g class="relationship" transform="translate(97.08658024407724 190.0138740334509) rotate(440.3289430793164)"><path class="outline" fill="#A5ABB6" stroke="none" d="M 25 0.5 L 35.553756854880625 0.5 L 35.553756854880625 -0.5 L 25 -0.5 Z M 81.11625685488062 0.5 L 91.67001370976125 0.5 L 91.67001370976125 3.5 L 98.67001370976125 0 L 91.67001370976125 -3.5 L 91.67001370976125 -0.5 L 81.11625685488062 -0.5 Z"/><text text-anchor="middle" pointer-events="none" font-size="8px" fill="#000000" x="58.335006854880625" y="3" font-family="sans-serif">ACTED_IN</text></g><g class="relationship" transform="translate(97.08658024407724 190.0138740334509) rotate(357.35802882981307)"><path class="outline" fill="#A5ABB6" stroke="none" d="M 25 0.5 L 39.03874083681788 0.5 L 39.03874083681788 -0.5 L 25 -0.5 Z M 84.60124083681788 0.5 L 98.63998167363576 0.5 L 98.63998167363576 3.5 L 105.63998167363576 0 L 98.63998167363576 -3.5 L 98.63998167363576 -0.5 L 84.60124083681788 -0.5 Z"/><text text-anchor="middle" pointer-events="none" font-size="8px" fill="#000000" x="61.81999083681788" y="3" font-family="sans-serif">ACTED_IN</text></g><g class="relationship" transform="translate(97.08658024407724 190.0138740334509) rotate(186.14030001196517)"><path class="outline" fill="#A5ABB6" stroke="none" d="M 25 0.5 L 46.64605428824784 0.5 L 46.64605428824784 -0.5 L 25 -0.5 Z M 92.20855428824784 0.5 L 113.85460857649568 0.5 L 113.85460857649568 3.5 L 120.85460857649568 0 L 113.85460857649568 -3.5 L 113.85460857649568 -0.5 L 92.20855428824784 -0.5 Z"/><text text-anchor="middle" pointer-events="none" font-size="8px" fill="#000000" x="69.42730428824784" y="3" transform="rotate(180 69.42730428824784 0)" font-family="sans-serif">ACTED_IN</text></g><g class="relationship" transform="translate(97.08658024407724 190.0138740334509) rotate(239.9547030120712)"><path class="outline" fill="#A5ABB6" stroke="none" d="M 25 0.5 L 27.676531652317436 0.5 L 27.676531652317436 -0.5 L 25 -0.5 Z M 73.23903165231744 0.5 L 75.91556330463487 0.5 L 75.91556330463487 3.5 L 82.91556330463487 0 L 75.91556330463487 -3.5 L 75.91556330463487 -0.5 L 73.23903165231744 -0.5 Z"/><text text-anchor="middle" pointer-events="none" font-size="8px" fill="#000000" x="50.457781652317436" y="3" transform="rotate(180 50.457781652317436 0)" font-family="sans-serif">ACTED_IN</text></g><g class="relationship" transform="translate(97.08658024407724 190.0138740334509) rotate(208.88749907421152)"><path class="outline" fill="#A5ABB6" stroke="none" d="M 25 0.5 L 30.7108452135449 0.5 L 30.7108452135449 -0.5 L 25 -0.5 Z M 76.2733452135449 0.5 L 81.9841904270898 0.5 L 81.9841904270898 3.5 L 88.9841904270898 0 L 81.9841904270898 -3.5 L 81.9841904270898 -0.5 L 76.2733452135449 -0.5 Z"/><text text-anchor="middle" pointer-events="none" font-size="8px" fill="#000000" x="53.4920952135449" y="3" transform="rotate(180 53.4920952135449 0)" font-family="sans-serif">ACTED_IN</text></g></g><g class="layer nodes"><g class="node" transform="translate(-2.714551649645224,134.94909636159534)"><circle class="outline" cx="0" cy="0" r="25" fill="#F79767" stroke="#f36924" stroke-width="2px"/><text text-anchor="middle" pointer-events="none" font-family="sans-serif" dy="1.5625" font-size="25" fill="#FFFFFF"/><text text-anchor="middle" pointer-events="none" font-family="sans-serif" dy="1.5625" font-size="25" fill="#FFFFFF"/><text text-anchor="middle" pointer-events="none" x="0" y="0" font-size="10px" fill="#FFFFFF" font-family="sans-serif"> The</text><text text-anchor="middle" pointer-events="none" x="0" y="10" font-size="10px" fill="#FFFFFF" font-family="sans-serif"> Matrix</text></g><g class="node" transform="translate(89.15554564975878,30.342827236450542)"><circle class="outline" cx="0" cy="0" r="25" fill="#57C7E3" stroke="#23b3d7" stroke-width="2px"/><text text-anchor="middle" pointer-events="none" font-family="sans-serif" dy="1.5625" font-size="25" fill="#2A2C34"/><text text-anchor="middle" pointer-events="none" font-family="sans-serif" dy="1.5625" font-size="25" fill="#2A2C34"/><text text-anchor="middle" pointer-events="none" x="0" y="0" font-size="10px" fill="#2A2C34" font-family="sans-serif"> Emil</text><text text-anchor="middle" pointer-events="none" x="0" y="10" font-size="10px" fill="#2A2C34" font-family="sans-serif"> Eifrem</text></g><g class="node" transform="translate(-44.99787175790933,33.01749893398486)"><circle class="outline" cx="0" cy="0" r="25" fill="#57C7E3" stroke="#23b3d7" stroke-width="2px"/><text text-anchor="middle" pointer-events="none" font-family="sans-serif" dy="1.5625" font-size="25" fill="#2A2C34"/><text text-anchor="middle" pointer-events="none" font-family="sans-serif" dy="1.5625" font-size="25" fill="#2A2C34"/><text text-anchor="middle" pointer-events="none" x="0" y="0" font-size="10px" fill="#2A2C34" font-family="sans-serif"> Hugo</text><text text-anchor="middle" pointer-events="none" x="0" y="10" font-size="10px" fill="#2A2C34" font-family="sans-serif"> Weaving</text></g><g class="node" transform="translate(15.124947337857567,236.2655067722294)"><circle class="outline" cx="0" cy="0" r="25" fill="#57C7E3" stroke="#23b3d7" stroke-width="2px"/><text text-anchor="middle" pointer-events="none" font-family="sans-serif" dy="1.5625" font-size="25" fill="#2A2C34"/><text text-anchor="middle" pointer-events="none" font-family="sans-serif" dy="1.5625" font-size="25" fill="#2A2C34"/><text text-anchor="middle" pointer-events="none" x="0" y="0" font-size="10px" fill="#2A2C34" font-family="sans-serif"> Laurence</text><text text-anchor="middle" pointer-events="none" x="0" y="10" font-size="10px" fill="#2A2C34" font-family="sans-serif"> Fishbur…</text></g><g class="node" transform="translate(-98.32042791137144,94.27653815831789)"><circle class="outline" cx="0" cy="0" r="25" fill="#57C7E3" stroke="#23b3d7" stroke-width="2px"/><text text-anchor="middle" pointer-events="none" font-family="sans-serif" dy="1.5625" font-size="25" fill="#2A2C34"/><text text-anchor="middle" pointer-events="none" x="0" y="5" font-size="10px" fill="#2A2C34" font-family="sans-serif"> Carrie-A…</text></g><g class="node" transform="translate(97.08658024407724,190.0138740334509)"><circle class="outline" cx="0" cy="0" r="25" fill="#57C7E3" stroke="#23b3d7" stroke-width="2px"/><text text-anchor="middle" pointer-events="none" font-family="sans-serif" dy="1.5625" font-size="25" fill="#2A2C34"/><text text-anchor="middle" pointer-events="none" font-family="sans-serif" dy="1.5625" font-size="25" fill="#2A2C34"/><text text-anchor="middle" pointer-events="none" x="0" y="0" font-size="10px" fill="#2A2C34" font-family="sans-serif"> Keanu</text><text text-anchor="middle" pointer-events="none" x="0" y="10" font-size="10px" fill="#2A2C34" font-family="sans-serif"> Reeves</text></g><g class="node" transform="translate(43.05492958940805,96.59894197819304)"><circle class="outline" cx="0" cy="0" r="25" fill="#F79767" stroke="#f36924" stroke-width="2px"/><text text-anchor="middle" pointer-events="none" font-family="sans-serif" dy="1.5625" font-size="25" fill="#FFFFFF"/><text text-anchor="middle" pointer-events="none" font-family="sans-serif" dy="1.5625" font-size="25" fill="#FFFFFF"/><text text-anchor="middle" pointer-events="none" font-family="sans-serif" dy="1.5625" font-size="25" fill="#FFFFFF"/><text text-anchor="middle" pointer-events="none" x="0" y="-5" font-size="10px" fill="#FFFFFF" font-family="sans-serif"> The</text><text text-anchor="middle" pointer-events="none" x="0" y="5" font-size="10px" fill="#FFFFFF" font-family="sans-serif"> Matrix</text><text text-anchor="middle" pointer-events="none" x="0" y="15" font-size="10px" fill="#FFFFFF" font-family="sans-serif"> Reloa…</text></g><g class="node" transform="translate(-47.93125394378314,174.41276476311393)"><circle class="outline" cx="0" cy="0" r="25" fill="#F79767" stroke="#f36924" stroke-width="2px"/><text text-anchor="middle" pointer-events="none" font-family="sans-serif" dy="1.5625" font-size="25" fill="#FFFFFF"/><text text-anchor="middle" pointer-events="none" font-family="sans-serif" dy="1.5625" font-size="25" fill="#FFFFFF"/><text text-anchor="middle" pointer-events="none" font-family="sans-serif" dy="1.5625" font-size="25" fill="#FFFFFF"/><text text-anchor="middle" pointer-events="none" x="0" y="-5" font-size="10px" fill="#FFFFFF" font-family="sans-serif"> The</text><text text-anchor="middle" pointer-events="none" x="0" y="5" font-size="10px" fill="#FFFFFF" font-family="sans-serif"> Matrix</text><text text-anchor="middle" pointer-events="none" x="0" y="15" font-size="10px" fill="#FFFFFF" font-family="sans-serif"> Revol…</text></g><g class="node" transform="translate(227.5877009951229,183.99205583552387)"><circle class="outline" cx="0" cy="0" r="25" fill="#F79767" stroke="#f36924" stroke-width="2px"/><text text-anchor="middle" pointer-events="none" font-family="sans-serif" dy="1.5625" font-size="25" fill="#FFFFFF"/><text text-anchor="middle" pointer-events="none" font-family="sans-serif" dy="1.5625" font-size="25" fill="#FFFFFF"/><text text-anchor="middle" pointer-events="none" font-family="sans-serif" dy="1.5625" font-size="25" fill="#FFFFFF"/><text text-anchor="middle" pointer-events="none" x="0" y="-5" font-size="10px" fill="#FFFFFF" font-family="sans-serif"> The</text><text text-anchor="middle" pointer-events="none" x="0" y="5" font-size="10px" fill="#FFFFFF" font-family="sans-serif"> Devil's</text><text text-anchor="middle" pointer-events="none" x="0" y="15" font-size="10px" fill="#FFFFFF" font-family="sans-serif"> Advoc…</text></g><g class="node" transform="translate(200.2555039668011,262.8770746678465)"><circle class="outline" cx="0" cy="0" r="25" fill="#F79767" stroke="#f36924" stroke-width="2px"/><text text-anchor="middle" pointer-events="none" font-family="sans-serif" dy="1.5625" font-size="25" fill="#FFFFFF"/><text text-anchor="middle" pointer-events="none" font-family="sans-serif" dy="1.5625" font-size="25" fill="#FFFFFF"/><text text-anchor="middle" pointer-events="none" x="0" y="0" font-size="10px" fill="#FFFFFF" font-family="sans-serif"> The</text><text text-anchor="middle" pointer-events="none" x="0" y="10" font-size="10px" fill="#FFFFFF" font-family="sans-serif"> Replac…</text></g><g class="node" transform="translate(203.92967648259338,109.05684307519502)"><circle class="outline" cx="0" cy="0" r="25" fill="#F79767" stroke="#f36924" stroke-width="2px"/><text text-anchor="middle" pointer-events="none" font-family="sans-serif" dy="1.5625" font-size="25" fill="#FFFFFF"/><text text-anchor="middle" pointer-events="none" font-family="sans-serif" dy="1.5625" font-size="25" fill="#FFFFFF"/><text text-anchor="middle" pointer-events="none" x="0" y="0" font-size="10px" fill="#FFFFFF" font-family="sans-serif"> Johnny</text><text text-anchor="middle" pointer-events="none" x="0" y="10" font-size="10px" fill="#FFFFFF" font-family="sans-serif"> Mnemo…</text></g><g class="node" transform="translate(-93.57127826565282,-76.50953140958654)"><circle class="outline" cx="0" cy="0" r="25" fill="#F79767" stroke="#f36924" stroke-width="2px"/><text text-anchor="middle" pointer-events="none" font-family="sans-serif" dy="1.5625" font-size="25" fill="#FFFFFF"/><text text-anchor="middle" pointer-events="none" font-family="sans-serif" dy="1.5625" font-size="25" fill="#FFFFFF"/><text text-anchor="middle" pointer-events="none" x="0" y="0" font-size="10px" fill="#FFFFFF" font-family="sans-serif"> Cloud</text><text text-anchor="middle" pointer-events="none" x="0" y="10" font-size="10px" fill="#FFFFFF" font-family="sans-serif"> Atlas</text></g><g class="node" transform="translate(14.632266104394734,-82.055998779443)"><circle class="outline" cx="0" cy="0" r="25" fill="#F79767" stroke="#f36924" stroke-width="2px"/><text text-anchor="middle" pointer-events="none" font-family="sans-serif" dy="1.5625" font-size="25" fill="#FFFFFF"/><text text-anchor="middle" pointer-events="none" font-family="sans-serif" dy="1.5625" font-size="25" fill="#FFFFFF"/><text text-anchor="middle" pointer-events="none" x="0" y="0" font-size="10px" fill="#FFFFFF" font-family="sans-serif"> V for</text><text text-anchor="middle" pointer-events="none" x="0" y="10" font-size="10px" fill="#FFFFFF" font-family="sans-serif"> Vendetta</text></g><g class="node" transform="translate(117.86208244556181,311.92634591081315)"><circle class="outline" cx="0" cy="0" r="25" fill="#F79767" stroke="#f36924" stroke-width="2px"/><text text-anchor="middle" pointer-events="none" font-family="sans-serif" dy="1.5625" font-size="25" fill="#FFFFFF"/><text text-anchor="middle" pointer-events="none" x="0" y="5" font-size="10px" fill="#FFFFFF" font-family="sans-serif"> Somethi…</text></g></g></svg>