<svg xmlns="http://www.w3.org/2000/svg" width="566.14111328125" height="574.0724487304688" viewBox="-148.7626953125 -148.02008056640625 566.14111328125 574.0724487304688"><title>Neo4j Graph Visualization</title><desc>Created using Neo4j (http://www.neo4j.com/)</desc><g class="layer relationships"><g class="relationship" transform="translate(36.66491290071604 396.7587982978888) rotate(360.15499792872225)"><path class="outline" fill="#A5ABB6" stroke="none" d="M 25 0.5 L 27.97634302260932 0.5 L 27.97634302260932 -0.5 L 25 -0.5 Z M 73.53884302260931 0.5 L 76.51518604521864 0.5 L 76.51518604521864 3.5 L 83.51518604521864 0 L 76.51518604521864 -3.5 L 76.51518604521864 -0.5 L 73.53884302260931 -0.5 Z"/><text text-anchor="middle" pointer-events="none" font-size="8px" fill="#000000" x="50.75759302260932" y="3" font-family="sans-serif">ACTED_IN</text></g><g class="relationship" transform="translate(249.27481906747266 359.4121356156835) rotate(520.1202890435111)"><path class="outline" fill="#A5ABB6" stroke="none" d="M 25 0.5 L 29.064435473347537 0.5 L 29.064435473347537 -0.5 L 25 -0.5 Z M 74.62693547334754 0.5 L 78.69137094669507 0.5 L 78.69137094669507 3.5 L 85.69137094669507 0 L 78.69137094669507 -3.5 L 78.69137094669507 -0.5 L 74.62693547334754 -0.5 Z"/><text text-anchor="middle" pointer-events="none" font-size="8px" fill="#000000" x="51.84568547334754" y="3" transform="rotate(180 51.84568547334754 0)" font-family="sans-serif">ACTED_IN</text></g><g class="relationship" transform="translate(133.8949276904156 290.27408786920415) rotate(443.96713639771394)"><path class="outline" fill="#A5ABB6" stroke="none" d="M 25 0.5 L 27.405211609447576 0.5 L 27.405211609447576 -0.5 L 25 -0.5 Z M 72.96771160944758 0.5 L 75.37292321889515 0.5 L 75.37292321889515 3.5 L 82.37292321889515 0 L 75.37292321889515 -3.5 L 75.37292321889515 -0.5 L 72.96771160944758 -0.5 Z"/><text text-anchor="middle" pointer-events="none" font-size="8px" fill="#000000" x="50.186461609447576" y="3" font-family="sans-serif">ACTED_IN</text></g><g class="relationship" transform="translate(366.04980671531075 127.9983876186933) rotate(243.33972305623604)"><path class="outline" fill="#A5ABB6" stroke="none" d="M 25 0.5 L 28.488933052969585 0.5 L 28.488933052969585 -0.5 L 25 -0.5 Z M 74.05143305296959 0.5 L 77.54036610593917 0.5 L 77.54036610593917 3.5 L 84.54036610593917 0 L 77.54036610593917 -3.5 L 77.54036610593917 -0.5 L 74.05143305296959 -0.5 Z"/><text text-anchor="middle" pointer-events="none" font-size="8px" fill="#000000" x="51.270183052969585" y="3" transform="rotate(180 51.270183052969585 0)" font-family="sans-serif">ACTED_IN</text></g><g class="relationship" transform="translate(388.37843136661746 -47.93479077496542) rotate(492.4879863016007)"><path class="outline" fill="#A5ABB6" stroke="none" d="M 25 0.5 L 26.632257937780672 0.5 L 26.632257937780672 -0.5 L 25 -0.5 Z M 72.19475793778068 0.5 L 73.82701587556134 0.5 L 73.82701587556134 3.5 L 80.82701587556134 0 L 73.82701587556134 -3.5 L 73.82701587556134 -0.5 L 72.19475793778068 -0.5 Z"/><text text-anchor="middle" pointer-events="none" font-size="8px" fill="#000000" x="49.41350793778067" y="3" transform="rotate(180 49.41350793778067 0)" font-family="sans-serif">ACTED_IN</text></g><g class="relationship" transform="translate(220.1976974845749 74.78532874810122) rotate(335.2005126710292)"><path class="outline" fill="#A5ABB6" stroke="none" d="M 25 0.5 L 26.98125223433255 0.5 L 26.98125223433255 -0.5 L 25 -0.5 Z M 72.54375223433254 0.5 L 74.5250044686651 0.5 L 74.5250044686651 3.5 L 81.5250044686651 0 L 74.5250044686651 -3.5 L 74.5250044686651 -0.5 L 72.54375223433254 -0.5 Z"/><text text-anchor="middle" pointer-events="none" font-size="8px" fill="#000000" x="49.76250223433255" y="3" font-family="sans-serif">ACTED_IN</text></g><g class="relationship" transform="translate(264.0526140400093 -69.51159431419168) rotate(422.05387931883195)"><path class="outline" fill="#A5ABB6" stroke="none" d="M 25 0.5 L 30.10143613468157 0.5 L 30.10143613468157 -0.5 L 25 -0.5 Z M 75.66393613468156 0.5 L 80.76537226936314 0.5 L 80.76537226936314 3.5 L 87.76537226936314 0 L 80.76537226936314 -3.5 L 80.76537226936314 -0.5 L 75.66393613468156 -0.5 Z"/><text text-anchor="middle" pointer-events="none" font-size="8px" fill="#000000" x="52.88268613468157" y="3" font-family="sans-serif">ACTED_IN</text></g><g class="relationship" transform="translate(5.355992936973502 -4.999418206166433) rotate(256.2606421354354)"><path class="outline" fill="#A5ABB6" stroke="none" d="M 25 0.5 L 32.40841245903045 0.5 L 32.40841245903045 -0.5 L 25 -0.5 Z M 77.97091245903044 0.5 L 85.3793249180609 0.5 L 85.3793249180609 3.5 L 92.3793249180609 0 L 85.3793249180609 -3.5 L 85.3793249180609 -0.5 L 77.97091245903044 -0.5 Z"/><text text-anchor="middle" pointer-events="none" font-size="8px" fill="#000000" x="55.18966245903045" y="3" transform="rotate(180 55.18966245903045 0)" font-family="sans-serif">ACTED_IN</text></g><g class="relationship" transform="translate(5.355992936973502 -4.999418206166433) rotate(513.8336058601226)"><path class="outline" fill="#A5ABB6" stroke="none" d="M 25 0.5 L 43.42142274160696 0.5 L 43.42142274160696 -0.5 L 25 -0.5 Z M 88.98392274160696 0.5 L 107.40534548321392 0.5 L 107.40534548321392 3.5 L 114.40534548321392 0 L 107.40534548321392 -3.5 L 107.40534548321392 -0.5 L 88.98392274160696 -0.5 Z"/><text text-anchor="middle" pointer-events="none" font-size="8px" fill="#000000" x="66.20267274160696" y="3" transform="rotate(180 66.20267274160696 0)" font-family="sans-serif">ACTED_IN</text></g><g class="relationship" transform="translate(5.355992936973502 -4.999418206166433) rotate(482.43243697038986)"><path class="outline" fill="#A5ABB6" stroke="none" d="M 25 0.5 L 25.71771248659128 0.5 L 25.71771248659128 -0.5 L 25 -0.5 Z M 66.83099373659128 0.5 L 67.54870622318256 0.5 L 67.54870622318256 3.5 L 74.54870622318256 0 L 67.54870622318256 -3.5 L 67.54870622318256 -0.5 L 66.83099373659128 -0.5 Z"/><text text-anchor="middle" pointer-events="none" font-size="8px" fill="#000000" x="46.27435311159128" y="3" transform="rotate(180 46.27435311159128 0)" font-family="sans-serif">ACTED…</text></g><g class="relationship" transform="translate(-56.82077847704641 -26.49719599292859) rotate(290.3399111493381)"><path class="outline" fill="#A5ABB6" stroke="none" d="M 25 0.5 L 25.28115650413251 0.5 L 25.28115650413251 -0.5 L 25 -0.5 Z M 66.39443775413251 0.5 L 66.67559425826502 0.5 L 66.67559425826502 3.5 L 73.67559425826502 0 L 66.67559425826502 -3.5 L 66.67559425826502 -0.5 L 66.39443775413251 -0.5 Z"/><text text-anchor="middle" pointer-events="none" font-size="8px" fill="#000000" x="45.83779712913251" y="3" font-family="sans-serif">ACTED…</text></g><g class="relationship" transform="translate(-56.82077847704641 -26.49719599292859) rotate(487.1834484806004)"><path class="outline" fill="#A5ABB6" stroke="none" d="M 25 0.5 L 25.791177017265454 0.5 L 25.791177017265454 -0.5 L 25 -0.5 Z M 71.35367701726545 0.5 L 72.14485403453091 0.5 L 72.14485403453091 3.5 L 79.14485403453091 0 L 72.14485403453091 -3.5 L 72.14485403453091 -0.5 L 71.35367701726545 -0.5 Z"/><text text-anchor="middle" pointer-events="none" font-size="8px" fill="#000000" x="48.572427017265454" y="3" transform="rotate(180 48.572427017265454 0)" font-family="sans-serif">ACTED_IN</text></g><g class="relationship" transform="translate(-56.82077847704641 -26.49719599292859) rotate(445.23902498621544)"><path class="outline" fill="#A5ABB6" stroke="none" d="M 25 0.5 L 26.661080519075988 0.5 L 26.661080519075988 -0.5 L 25 -0.5 Z M 72.223580519076 0.5 L 73.88466103815198 0.5 L 73.88466103815198 3.5 L 80.88466103815198 0 L 73.88466103815198 -3.5 L 73.88466103815198 -0.5 L 72.223580519076 -0.5 Z"/><text text-anchor="middle" pointer-events="none" font-size="8px" fill="#000000" x="49.44233051907599" y="3" font-family="sans-serif">ACTED_IN</text></g><g class="relationship" transform="translate(-118.36466453684451 -39.419048309736674) rotate(320.2889916685032)"><path class="outline" fill="#A5ABB6" stroke="none" d="M 25 0.5 L 36.0125979216293 0.5 L 36.0125979216293 -0.5 L 25 -0.5 Z M 81.5750979216293 0.5 L 92.5876958432586 0.5 L 92.5876958432586 3.5 L 99.5876958432586 0 L 92.5876958432586 -3.5 L 92.5876958432586 -0.5 L 81.5750979216293 -0.5 Z"/><text text-anchor="middle" pointer-events="none" font-size="8px" fill="#000000" x="58.7938479216293" y="3" font-family="sans-serif">ACTED_IN</text></g><g class="relationship" transform="translate(-118.36466453684451 -39.419048309736674) rotate(450.8352486789037)"><path class="outline" fill="#A5ABB6" stroke="none" d="M 25 0.5 L 26.784391616201596 0.5 L 26.784391616201596 -0.5 L 25 -0.5 Z M 62.120329116201596 0.5 L 63.90472073240319 0.5 L 63.90472073240319 3.5 L 70.90472073240319 0 L 63.90472073240319 -3.5 L 63.90472073240319 -0.5 L 62.120329116201596 -0.5 Z"/><text text-anchor="middle" pointer-events="none" font-size="8px" fill="#000000" x="44.452360366201596" y="3" transform="rotate(180 44.452360366201596 0)" font-family="sans-serif">ACTE…</text></g><g class="relationship" transform="translate(-118.36466453684451 -39.419048309736674) rotate(419.29749779902556)"><path class="outline" fill="#A5ABB6" stroke="none" d="M 25 0.5 L 42.59351291230195 0.5 L 42.59351291230195 -0.5 L 25 -0.5 Z M 88.15601291230195 0.5 L 105.7495258246039 0.5 L 105.7495258246039 3.5 L 112.7495258246039 0 L 105.7495258246039 -3.5 L 105.7495258246039 -0.5 L 88.15601291230195 -0.5 Z"/><text text-anchor="middle" pointer-events="none" font-size="8px" fill="#000000" x="65.37476291230195" y="3" font-family="sans-serif">ACTED_IN</text></g><g class="relationship" transform="translate(-74.6951493478987 191.07448279520378) rotate(283.3845465365178)"><path class="outline" fill="#A5ABB6" stroke="none" d="M 25 0.5 L 31.30918113580418 0.5 L 31.30918113580418 -0.5 L 25 -0.5 Z M 76.87168113580418 0.5 L 83.18086227160836 0.5 L 83.18086227160836 3.5 L 90.18086227160836 0 L 83.18086227160836 -3.5 L 83.18086227160836 -0.5 L 76.87168113580418 -0.5 Z"/><text text-anchor="middle" pointer-events="none" font-size="8px" fill="#000000" x="54.09043113580418" y="3" font-family="sans-serif">ACTED_IN</text></g></g><g class="layer nodes"><g class="node" transform="translate(36.66491290071604,396.7587982978888)"><circle class="outline" cx="0" cy="0" r="25" fill="#57C7E3" stroke="#23b3d7" stroke-width="2px"/><text text-anchor="middle" pointer-events="none" font-family="sans-serif" dy="1.5625" font-size="25" fill="#2A2C34"/><text text-anchor="middle" pointer-events="none" font-family="sans-serif" dy="1.5625" font-size="25" fill="#2A2C34"/><text text-anchor="middle" pointer-events="none" x="0" y="0" font-size="10px" fill="#2A2C34" font-family="sans-serif"> Tom</text><text text-anchor="middle" pointer-events="none" x="0" y="10" font-size="10px" fill="#2A2C34" font-family="sans-serif"> Hanks</text></g><g class="node" transform="translate(145.17970187620224,397.05235584610364)"><circle class="outline" cx="0" cy="0" r="25" fill="#F79767" stroke="#f36924" stroke-width="2px"/><text text-anchor="middle" pointer-events="none" font-family="sans-serif" dy="1.5625" font-size="25" fill="#FFFFFF"/><text text-anchor="middle" pointer-events="none" font-family="sans-serif" dy="1.5625" font-size="25" fill="#FFFFFF"/><text text-anchor="middle" pointer-events="none" x="0" y="0" font-size="10px" fill="#FFFFFF" font-family="sans-serif"> Cloud</text><text text-anchor="middle" pointer-events="none" x="0" y="10" font-size="10px" fill="#FFFFFF" font-family="sans-serif"> Atlas</text></g><g class="node" transform="translate(249.27481906747266,359.4121356156835)"><circle class="outline" cx="0" cy="0" r="25" fill="#57C7E3" stroke="#23b3d7" stroke-width="2px"/><text text-anchor="middle" pointer-events="none" font-family="sans-serif" dy="1.5625" font-size="25" fill="#2A2C34"/><text text-anchor="middle" pointer-events="none" font-family="sans-serif" dy="1.5625" font-size="25" fill="#2A2C34"/><text text-anchor="middle" pointer-events="none" x="0" y="0" font-size="10px" fill="#2A2C34" font-family="sans-serif"> Jim</text><text text-anchor="middle" pointer-events="none" x="0" y="10" font-size="10px" fill="#2A2C34" font-family="sans-serif"> Broadb…</text></g><g class="node" transform="translate(133.8949276904156,290.27408786920415)"><circle class="outline" cx="0" cy="0" r="25" fill="#57C7E3" stroke="#23b3d7" stroke-width="2px"/><text text-anchor="middle" pointer-events="none" font-family="sans-serif" dy="1.5625" font-size="25" fill="#2A2C34"/><text text-anchor="middle" pointer-events="none" font-family="sans-serif" dy="1.5625" font-size="25" fill="#2A2C34"/><text text-anchor="middle" pointer-events="none" x="0" y="0" font-size="10px" fill="#2A2C34" font-family="sans-serif"> Halle</text><text text-anchor="middle" pointer-events="none" x="0" y="10" font-size="10px" fill="#2A2C34" font-family="sans-serif"> Berry</text></g><g class="node" transform="translate(366.04980671531075,127.9983876186933)"><circle class="outline" cx="0" cy="0" r="25" fill="#57C7E3" stroke="#23b3d7" stroke-width="2px"/><text text-anchor="middle" pointer-events="none" font-family="sans-serif" dy="1.5625" font-size="25" fill="#2A2C34"/><text text-anchor="middle" pointer-events="none" x="0" y="5" font-size="10px" fill="#2A2C34" font-family="sans-serif"> Ben Miles</text></g><g class="node" transform="translate(316.89909724466816,30.10405905387975)"><circle class="outline" cx="0" cy="0" r="25" fill="#F79767" stroke="#f36924" stroke-width="2px"/><text text-anchor="middle" pointer-events="none" font-family="sans-serif" dy="1.5625" font-size="25" fill="#FFFFFF"/><text text-anchor="middle" pointer-events="none" font-family="sans-serif" dy="1.5625" font-size="25" fill="#FFFFFF"/><text text-anchor="middle" pointer-events="none" x="0" y="0" font-size="10px" fill="#FFFFFF" font-family="sans-serif"> V for</text><text text-anchor="middle" pointer-events="none" x="0" y="10" font-size="10px" fill="#FFFFFF" font-family="sans-serif"> Vendetta</text></g><g class="node" transform="translate(388.37843136661746,-47.93479077496542)"><circle class="outline" cx="0" cy="0" r="25" fill="#57C7E3" stroke="#23b3d7" stroke-width="2px"/><text text-anchor="middle" pointer-events="none" font-family="sans-serif" dy="1.5625" font-size="25" fill="#2A2C34"/><text text-anchor="middle" pointer-events="none" font-family="sans-serif" dy="1.5625" font-size="25" fill="#2A2C34"/><text text-anchor="middle" pointer-events="none" x="0" y="0" font-size="10px" fill="#2A2C34" font-family="sans-serif"> Natalie</text><text text-anchor="middle" pointer-events="none" x="0" y="10" font-size="10px" fill="#2A2C34" font-family="sans-serif"> Portman</text></g><g class="node" transform="translate(220.1976974845749,74.78532874810122)"><circle class="outline" cx="0" cy="0" r="25" fill="#57C7E3" stroke="#23b3d7" stroke-width="2px"/><text text-anchor="middle" pointer-events="none" font-family="sans-serif" dy="1.5625" font-size="25" fill="#2A2C34"/><text text-anchor="middle" pointer-events="none" x="0" y="5" font-size="10px" fill="#2A2C34" font-family="sans-serif"> John Hurt</text></g><g class="node" transform="translate(264.0526140400093,-69.51159431419168)"><circle class="outline" cx="0" cy="0" r="25" fill="#57C7E3" stroke="#23b3d7" stroke-width="2px"/><text text-anchor="middle" pointer-events="none" font-family="sans-serif" dy="1.5625" font-size="25" fill="#2A2C34"/><text text-anchor="middle" pointer-events="none" font-family="sans-serif" dy="1.5625" font-size="25" fill="#2A2C34"/><text text-anchor="middle" pointer-events="none" x="0" y="0" font-size="10px" fill="#2A2C34" font-family="sans-serif"> Stephen</text><text text-anchor="middle" pointer-events="none" x="0" y="10" font-size="10px" fill="#2A2C34" font-family="sans-serif"> Rea</text></g><g class="node" transform="translate(5.355992936973502,-4.999418206166433)"><circle class="outline" cx="0" cy="0" r="25" fill="#57C7E3" stroke="#23b3d7" stroke-width="2px"/><text text-anchor="middle" pointer-events="none" font-family="sans-serif" dy="1.5625" font-size="25" fill="#2A2C34"/><text text-anchor="middle" pointer-events="none" font-family="sans-serif" dy="1.5625" font-size="25" fill="#2A2C34"/><text text-anchor="middle" pointer-events="none" x="0" y="0" font-size="10px" fill="#2A2C34" font-family="sans-serif"> Laurence</text><text text-anchor="middle" pointer-events="none" x="0" y="10" font-size="10px" fill="#2A2C34" font-family="sans-serif"> Fishbur…</text></g><g class="node" transform="translate(-22.522238896571206,-119.02007470337684)"><circle class="outline" cx="0" cy="0" r="25" fill="#F79767" stroke="#f36924" stroke-width="2px"/><text text-anchor="middle" pointer-events="none" font-family="sans-serif" dy="1.5625" font-size="25" fill="#FFFFFF"/><text text-anchor="middle" pointer-events="none" font-family="sans-serif" dy="1.5625" font-size="25" fill="#FFFFFF"/><text text-anchor="middle" pointer-events="none" font-family="sans-serif" dy="1.5625" font-size="25" fill="#FFFFFF"/><text text-anchor="middle" pointer-events="none" x="0" y="-5" font-size="10px" fill="#FFFFFF" font-family="sans-serif"> The</text><text text-anchor="middle" pointer-events="none" x="0" y="5" font-size="10px" fill="#FFFFFF" font-family="sans-serif"> Matrix</text><text text-anchor="middle" pointer-events="none" x="0" y="15" font-size="10px" fill="#FFFFFF" font-family="sans-serif"> Revol…</text></g><g class="node" transform="translate(-56.82077847704641,-26.49719599292859)"><circle class="outline" cx="0" cy="0" r="25" fill="#57C7E3" stroke="#23b3d7" stroke-width="2px"/><text text-anchor="middle" pointer-events="none" font-family="sans-serif" dy="1.5625" font-size="25" fill="#2A2C34"/><text text-anchor="middle" pointer-events="none" x="0" y="5" font-size="10px" fill="#2A2C34" font-family="sans-serif"> Carrie-A…</text></g><g class="node" transform="translate(-118.36466453684451,-39.419048309736674)"><circle class="outline" cx="0" cy="0" r="25" fill="#57C7E3" stroke="#23b3d7" stroke-width="2px"/><text text-anchor="middle" pointer-events="none" font-family="sans-serif" dy="1.5625" font-size="25" fill="#2A2C34"/><text text-anchor="middle" pointer-events="none" font-family="sans-serif" dy="1.5625" font-size="25" fill="#2A2C34"/><text text-anchor="middle" pointer-events="none" x="0" y="0" font-size="10px" fill="#2A2C34" font-family="sans-serif"> Keanu</text><text text-anchor="middle" pointer-events="none" x="0" y="10" font-size="10px" fill="#2A2C34" font-family="sans-serif"> Reeves</text></g><g class="node" transform="translate(-119.76269864681382,56.475482083751416)"><circle class="outline" cx="0" cy="0" r="25" fill="#F79767" stroke="#f36924" stroke-width="2px"/><text text-anchor="middle" pointer-events="none" font-family="sans-serif" dy="1.5625" font-size="25" fill="#FFFFFF"/><text text-anchor="middle" pointer-events="none" font-family="sans-serif" dy="1.5625" font-size="25" fill="#FFFFFF"/><text text-anchor="middle" pointer-events="none" font-family="sans-serif" dy="1.5625" font-size="25" fill="#FFFFFF"/><text text-anchor="middle" pointer-events="none" x="0" y="-5" font-size="10px" fill="#FFFFFF" font-family="sans-serif"> The</text><text text-anchor="middle" pointer-events="none" x="0" y="5" font-size="10px" fill="#FFFFFF" font-family="sans-serif"> Matrix</text><text text-anchor="middle" pointer-events="none" x="0" y="15" font-size="10px" fill="#FFFFFF" font-family="sans-serif"> Reloa…</text></g><g class="node" transform="translate(-74.6951493478987,191.07448279520378)"><circle class="outline" cx="0" cy="0" r="25" fill="#57C7E3" stroke="#23b3d7" stroke-width="2px"/><text text-anchor="middle" pointer-events="none" font-family="sans-serif" dy="1.5625" font-size="25" fill="#2A2C34"/><text text-anchor="middle" pointer-events="none" font-family="sans-serif" dy="1.5625" font-size="25" fill="#2A2C34"/><text text-anchor="middle" pointer-events="none" x="0" y="0" font-size="10px" fill="#2A2C34" font-family="sans-serif"> Emil</text><text text-anchor="middle" pointer-events="none" x="0" y="10" font-size="10px" fill="#2A2C34" font-family="sans-serif"> Eifrem</text></g><g class="node" transform="translate(-48.03244709349277,79.02212297121743)"><circle class="outline" cx="0" cy="0" r="25" fill="#F79767" stroke="#f36924" stroke-width="2px"/><text text-anchor="middle" pointer-events="none" font-family="sans-serif" dy="1.5625" font-size="25" fill="#FFFFFF"/><text text-anchor="middle" pointer-events="none" font-family="sans-serif" dy="1.5625" font-size="25" fill="#FFFFFF"/><text text-anchor="middle" pointer-events="none" x="0" y="0" font-size="10px" fill="#FFFFFF" font-family="sans-serif"> The</text><text text-anchor="middle" pointer-events="none" x="0" y="10" font-size="10px" fill="#FFFFFF" font-family="sans-serif"> Matrix</text></g></g></svg>